<mxfile host="Electron" modified="2023-12-10T05:12:10.294Z" agent="Mozilla/5.0 (Windows NT 10.0; Win64; x64) AppleWebKit/537.36 (KHTML, like Gecko) draw.io/22.1.2 Chrome/114.0.5735.289 Electron/25.9.4 Safari/537.36" etag="QI-elYOl0Vt7uhkxvn7n" version="22.1.2" type="device">
  <diagram name="Trang-1" id="_k-Chzy2qT7Ti57JTN79">
    <mxGraphModel dx="1593" dy="772" grid="1" gridSize="10" guides="1" tooltips="1" connect="1" arrows="1" fold="1" page="1" pageScale="1" pageWidth="827" pageHeight="1169" math="0" shadow="0">
      <root>
        <mxCell id="0" />
        <mxCell id="1" parent="0" />
        <mxCell id="NBp4li4aagU_YhR3xmd5-1" value="" style="ellipse;html=1;shape=startState;fillColor=#000000;strokeColor=#ff0000;" parent="1" vertex="1">
          <mxGeometry x="146" y="40" width="30" height="30" as="geometry" />
        </mxCell>
        <mxCell id="NBp4li4aagU_YhR3xmd5-2" value="" style="edgeStyle=orthogonalEdgeStyle;html=1;verticalAlign=bottom;endArrow=open;endSize=8;strokeColor=#ff0000;rounded=0;entryX=0.5;entryY=0;entryDx=0;entryDy=0;" parent="1" source="NBp4li4aagU_YhR3xmd5-1" target="NBp4li4aagU_YhR3xmd5-7" edge="1">
          <mxGeometry relative="1" as="geometry">
            <mxPoint x="161" y="130" as="targetPoint" />
          </mxGeometry>
        </mxCell>
        <mxCell id="NBp4li4aagU_YhR3xmd5-7" value="Tìm kiếm khóa học" style="rounded=1;whiteSpace=wrap;html=1;arcSize=40;fontColor=#000000;fillColor=#ffffc0;strokeColor=#ff0000;" parent="1" vertex="1">
          <mxGeometry x="101" y="127" width="120" height="40" as="geometry" />
        </mxCell>
        <mxCell id="n9zslFiEqPaQA807ECiN-1" value="" style="rhombus;whiteSpace=wrap;html=1;fontColor=#000000;fillColor=#ffffc0;strokeColor=#ff0000;" parent="1" vertex="1">
          <mxGeometry x="121" y="246" width="80" height="40" as="geometry" />
        </mxCell>
        <mxCell id="n9zslFiEqPaQA807ECiN-2" value="Sai" style="edgeStyle=orthogonalEdgeStyle;html=1;align=left;verticalAlign=bottom;endArrow=open;endSize=8;strokeColor=#ff0000;rounded=0;entryX=0;entryY=0.5;entryDx=0;entryDy=0;" parent="1" source="n9zslFiEqPaQA807ECiN-1" target="NBp4li4aagU_YhR3xmd5-7" edge="1">
          <mxGeometry x="-0.6573" relative="1" as="geometry">
            <mxPoint x="-10" y="256" as="targetPoint" />
            <mxPoint as="offset" />
            <Array as="points">
              <mxPoint x="80" y="266" />
              <mxPoint x="80" y="147" />
            </Array>
          </mxGeometry>
        </mxCell>
        <mxCell id="n9zslFiEqPaQA807ECiN-3" value="Đúng" style="edgeStyle=orthogonalEdgeStyle;html=1;align=left;verticalAlign=top;endArrow=open;endSize=8;strokeColor=#ff0000;rounded=0;entryX=0.5;entryY=0;entryDx=0;entryDy=0;" parent="1" source="n9zslFiEqPaQA807ECiN-1" target="n9zslFiEqPaQA807ECiN-5" edge="1">
          <mxGeometry x="-1" y="10" relative="1" as="geometry">
            <mxPoint x="161" y="406" as="targetPoint" />
            <mxPoint as="offset" />
          </mxGeometry>
        </mxCell>
        <mxCell id="n9zslFiEqPaQA807ECiN-4" value="[Tồn tại khóa học?]" style="text;html=1;align=center;verticalAlign=middle;resizable=0;points=[];autosize=1;strokeColor=none;fillColor=none;" parent="1" vertex="1">
          <mxGeometry x="161" y="186" width="130" height="30" as="geometry" />
        </mxCell>
        <mxCell id="n9zslFiEqPaQA807ECiN-5" value="Chọn và xem thông tin về khóa học" style="rounded=1;whiteSpace=wrap;html=1;arcSize=40;fontColor=#000000;fillColor=#ffffc0;strokeColor=#ff0000;" parent="1" vertex="1">
          <mxGeometry x="101" y="326" width="120" height="40" as="geometry" />
        </mxCell>
        <mxCell id="n9zslFiEqPaQA807ECiN-6" value="" style="edgeStyle=orthogonalEdgeStyle;html=1;verticalAlign=bottom;endArrow=open;endSize=8;strokeColor=#ff0000;rounded=0;entryX=0.5;entryY=0;entryDx=0;entryDy=0;" parent="1" source="n9zslFiEqPaQA807ECiN-5" target="NLIpUuNoYqL5pFW4PT16-4" edge="1">
          <mxGeometry relative="1" as="geometry">
            <mxPoint x="161" y="446" as="targetPoint" />
            <Array as="points" />
          </mxGeometry>
        </mxCell>
        <mxCell id="NLIpUuNoYqL5pFW4PT16-1" value="" style="edgeStyle=orthogonalEdgeStyle;html=1;verticalAlign=bottom;endArrow=open;endSize=8;strokeColor=#ff0000;rounded=0;entryX=0.5;entryY=0;entryDx=0;entryDy=0;exitX=0.5;exitY=1;exitDx=0;exitDy=0;" edge="1" parent="1" source="NBp4li4aagU_YhR3xmd5-7" target="n9zslFiEqPaQA807ECiN-1">
          <mxGeometry relative="1" as="geometry">
            <mxPoint x="171" y="140" as="targetPoint" />
            <mxPoint x="70" y="216" as="sourcePoint" />
          </mxGeometry>
        </mxCell>
        <mxCell id="NLIpUuNoYqL5pFW4PT16-2" value="" style="shape=line;html=1;strokeWidth=6;strokeColor=#ff0000;direction=south;" vertex="1" parent="1">
          <mxGeometry x="320" y="326" width="10" height="200" as="geometry" />
        </mxCell>
        <mxCell id="NLIpUuNoYqL5pFW4PT16-4" value="Thêm khóa học vào giỏ hàng" style="rounded=1;whiteSpace=wrap;html=1;arcSize=40;fontColor=#000000;fillColor=#ffffc0;strokeColor=#ff0000;" vertex="1" parent="1">
          <mxGeometry x="101" y="406" width="120" height="40" as="geometry" />
        </mxCell>
        <mxCell id="NLIpUuNoYqL5pFW4PT16-5" value="" style="edgeStyle=orthogonalEdgeStyle;html=1;verticalAlign=bottom;endArrow=open;endSize=8;strokeColor=#ff0000;rounded=0;entryX=0.504;entryY=0.503;entryDx=0;entryDy=0;exitX=1;exitY=0.5;exitDx=0;exitDy=0;entryPerimeter=0;" edge="1" parent="1" source="NLIpUuNoYqL5pFW4PT16-4" target="NLIpUuNoYqL5pFW4PT16-2">
          <mxGeometry relative="1" as="geometry">
            <mxPoint x="171" y="416" as="targetPoint" />
            <Array as="points" />
            <mxPoint x="171" y="376" as="sourcePoint" />
          </mxGeometry>
        </mxCell>
        <mxCell id="NLIpUuNoYqL5pFW4PT16-8" value="Xem giỏ hàng" style="rounded=1;whiteSpace=wrap;html=1;arcSize=40;fontColor=#000000;fillColor=#ffffc0;strokeColor=#ff0000;" vertex="1" parent="1">
          <mxGeometry x="390" y="326" width="140" height="40" as="geometry" />
        </mxCell>
        <mxCell id="NLIpUuNoYqL5pFW4PT16-9" value="" style="edgeStyle=orthogonalEdgeStyle;html=1;verticalAlign=bottom;endArrow=open;endSize=8;strokeColor=#ff0000;rounded=0;exitX=0.102;exitY=0.84;exitDx=0;exitDy=0;exitPerimeter=0;entryX=0;entryY=0.5;entryDx=0;entryDy=0;" edge="1" source="NLIpUuNoYqL5pFW4PT16-2" parent="1" target="NLIpUuNoYqL5pFW4PT16-8">
          <mxGeometry relative="1" as="geometry">
            <mxPoint x="390" y="450" as="targetPoint" />
          </mxGeometry>
        </mxCell>
        <mxCell id="NLIpUuNoYqL5pFW4PT16-10" value="Xóa / Cập nhật giỏ hàng" style="rounded=1;whiteSpace=wrap;html=1;arcSize=40;fontColor=#000000;fillColor=#ffffc0;strokeColor=#ff0000;" vertex="1" parent="1">
          <mxGeometry x="390" y="470" width="140" height="40" as="geometry" />
        </mxCell>
        <mxCell id="NLIpUuNoYqL5pFW4PT16-11" value="" style="edgeStyle=orthogonalEdgeStyle;html=1;verticalAlign=bottom;endArrow=open;endSize=8;strokeColor=#ff0000;rounded=0;exitX=0.819;exitY=0.413;exitDx=0;exitDy=0;exitPerimeter=0;entryX=0;entryY=0.5;entryDx=0;entryDy=0;" edge="1" parent="1" target="NLIpUuNoYqL5pFW4PT16-10" source="NLIpUuNoYqL5pFW4PT16-2">
          <mxGeometry relative="1" as="geometry">
            <mxPoint x="398" y="594" as="targetPoint" />
            <mxPoint x="330" y="490" as="sourcePoint" />
          </mxGeometry>
        </mxCell>
        <mxCell id="NLIpUuNoYqL5pFW4PT16-12" value="" style="edgeStyle=orthogonalEdgeStyle;html=1;verticalAlign=bottom;endArrow=open;endSize=8;strokeColor=#ff0000;rounded=0;exitX=1;exitY=0.5;exitDx=0;exitDy=0;entryX=0.101;entryY=0.531;entryDx=0;entryDy=0;entryPerimeter=0;" edge="1" parent="1" source="NLIpUuNoYqL5pFW4PT16-8" target="NLIpUuNoYqL5pFW4PT16-14">
          <mxGeometry relative="1" as="geometry">
            <mxPoint x="610" y="346" as="targetPoint" />
            <Array as="points" />
            <mxPoint x="231" y="436" as="sourcePoint" />
          </mxGeometry>
        </mxCell>
        <mxCell id="NLIpUuNoYqL5pFW4PT16-13" value="" style="edgeStyle=orthogonalEdgeStyle;html=1;verticalAlign=bottom;endArrow=open;endSize=8;strokeColor=#ff0000;rounded=0;exitX=1;exitY=0.5;exitDx=0;exitDy=0;entryX=0.819;entryY=0.479;entryDx=0;entryDy=0;entryPerimeter=0;" edge="1" parent="1" source="NLIpUuNoYqL5pFW4PT16-10" target="NLIpUuNoYqL5pFW4PT16-14">
          <mxGeometry relative="1" as="geometry">
            <mxPoint x="610" y="490" as="targetPoint" />
            <Array as="points" />
            <mxPoint x="241" y="446" as="sourcePoint" />
          </mxGeometry>
        </mxCell>
        <mxCell id="NLIpUuNoYqL5pFW4PT16-14" value="" style="shape=line;html=1;strokeWidth=6;strokeColor=#ff0000;direction=south;" vertex="1" parent="1">
          <mxGeometry x="588" y="326" width="10" height="200" as="geometry" />
        </mxCell>
        <mxCell id="NLIpUuNoYqL5pFW4PT16-16" value="Xác nhận đơn hàng" style="rounded=1;whiteSpace=wrap;html=1;arcSize=40;fontColor=#000000;fillColor=#ffffc0;strokeColor=#ff0000;" vertex="1" parent="1">
          <mxGeometry x="618" y="630" width="120" height="40" as="geometry" />
        </mxCell>
        <mxCell id="NLIpUuNoYqL5pFW4PT16-17" value="" style="edgeStyle=orthogonalEdgeStyle;html=1;verticalAlign=bottom;endArrow=open;endSize=8;strokeColor=#ff0000;rounded=0;exitX=0;exitY=0.5;exitDx=0;exitDy=0;entryX=1;entryY=0.5;entryDx=0;entryDy=0;" edge="1" source="NLIpUuNoYqL5pFW4PT16-16" parent="1" target="NLIpUuNoYqL5pFW4PT16-19">
          <mxGeometry relative="1" as="geometry">
            <mxPoint x="490" y="650" as="targetPoint" />
          </mxGeometry>
        </mxCell>
        <mxCell id="NLIpUuNoYqL5pFW4PT16-18" value="" style="edgeStyle=orthogonalEdgeStyle;html=1;verticalAlign=bottom;endArrow=open;endSize=8;strokeColor=#ff0000;rounded=0;exitX=0.483;exitY=0.539;exitDx=0;exitDy=0;entryX=1;entryY=0.5;entryDx=0;entryDy=0;exitPerimeter=0;" edge="1" parent="1" source="NLIpUuNoYqL5pFW4PT16-14" target="NLIpUuNoYqL5pFW4PT16-16">
          <mxGeometry relative="1" as="geometry">
            <mxPoint x="753" y="500" as="targetPoint" />
            <Array as="points">
              <mxPoint x="593" y="427" />
              <mxPoint x="780" y="427" />
              <mxPoint x="780" y="650" />
            </Array>
            <mxPoint x="746.3700000000001" y="426.79999999999995" as="sourcePoint" />
          </mxGeometry>
        </mxCell>
        <mxCell id="NLIpUuNoYqL5pFW4PT16-19" value="Thanh toán" style="rounded=1;whiteSpace=wrap;html=1;arcSize=40;fontColor=#000000;fillColor=#ffffc0;strokeColor=#ff0000;" vertex="1" parent="1">
          <mxGeometry x="420" y="630" width="120" height="40" as="geometry" />
        </mxCell>
        <mxCell id="NLIpUuNoYqL5pFW4PT16-20" value="" style="edgeStyle=orthogonalEdgeStyle;html=1;verticalAlign=bottom;endArrow=open;endSize=8;strokeColor=#ff0000;rounded=0;entryX=0.4;entryY=0.574;entryDx=0;entryDy=0;entryPerimeter=0;" edge="1" source="NLIpUuNoYqL5pFW4PT16-19" parent="1" target="NLIpUuNoYqL5pFW4PT16-23">
          <mxGeometry relative="1" as="geometry">
            <mxPoint x="330" y="650" as="targetPoint" />
          </mxGeometry>
        </mxCell>
        <mxCell id="NLIpUuNoYqL5pFW4PT16-23" value="" style="shape=line;html=1;strokeWidth=6;strokeColor=#ff0000;direction=south;" vertex="1" parent="1">
          <mxGeometry x="350" y="570" width="10" height="200" as="geometry" />
        </mxCell>
        <mxCell id="NLIpUuNoYqL5pFW4PT16-27" value="Thanh toán bằng tiền mặt" style="rounded=1;whiteSpace=wrap;html=1;arcSize=40;fontColor=#000000;fillColor=#ffffc0;strokeColor=#ff0000;" vertex="1" parent="1">
          <mxGeometry x="191" y="590" width="120" height="40" as="geometry" />
        </mxCell>
        <mxCell id="NLIpUuNoYqL5pFW4PT16-28" value="Thanh toán bằng thẻ ngân hàng" style="rounded=1;whiteSpace=wrap;html=1;arcSize=40;fontColor=#000000;fillColor=#ffffc0;strokeColor=#ff0000;" vertex="1" parent="1">
          <mxGeometry x="191" y="700" width="120" height="40" as="geometry" />
        </mxCell>
        <mxCell id="NLIpUuNoYqL5pFW4PT16-29" value="" style="edgeStyle=orthogonalEdgeStyle;html=1;verticalAlign=bottom;endArrow=open;endSize=8;strokeColor=#ff0000;rounded=0;entryX=1;entryY=0.5;entryDx=0;entryDy=0;exitX=0.2;exitY=0.468;exitDx=0;exitDy=0;exitPerimeter=0;" edge="1" parent="1" source="NLIpUuNoYqL5pFW4PT16-23" target="NLIpUuNoYqL5pFW4PT16-27">
          <mxGeometry relative="1" as="geometry">
            <mxPoint x="415" y="477" as="targetPoint" />
            <Array as="points" />
            <mxPoint x="311" y="476" as="sourcePoint" />
          </mxGeometry>
        </mxCell>
        <mxCell id="NLIpUuNoYqL5pFW4PT16-30" value="" style="edgeStyle=orthogonalEdgeStyle;html=1;verticalAlign=bottom;endArrow=open;endSize=8;strokeColor=#ff0000;rounded=0;entryX=1;entryY=0.5;entryDx=0;entryDy=0;exitX=0.75;exitY=0.5;exitDx=0;exitDy=0;exitPerimeter=0;" edge="1" parent="1" source="NLIpUuNoYqL5pFW4PT16-23" target="NLIpUuNoYqL5pFW4PT16-28">
          <mxGeometry relative="1" as="geometry">
            <mxPoint x="291" y="620" as="targetPoint" />
            <Array as="points" />
            <mxPoint x="365" y="620" as="sourcePoint" />
          </mxGeometry>
        </mxCell>
        <mxCell id="NLIpUuNoYqL5pFW4PT16-31" value="" style="shape=line;html=1;strokeWidth=6;strokeColor=#ff0000;direction=south;" vertex="1" parent="1">
          <mxGeometry x="140" y="570" width="10" height="200" as="geometry" />
        </mxCell>
        <mxCell id="NLIpUuNoYqL5pFW4PT16-32" value="" style="edgeStyle=orthogonalEdgeStyle;html=1;verticalAlign=bottom;endArrow=open;endSize=8;strokeColor=#ff0000;rounded=0;entryX=0.196;entryY=0.478;entryDx=0;entryDy=0;exitX=0;exitY=0.5;exitDx=0;exitDy=0;entryPerimeter=0;" edge="1" parent="1" source="NLIpUuNoYqL5pFW4PT16-27" target="NLIpUuNoYqL5pFW4PT16-31">
          <mxGeometry relative="1" as="geometry">
            <mxPoint x="321" y="620" as="targetPoint" />
            <Array as="points" />
            <mxPoint x="395" y="620" as="sourcePoint" />
          </mxGeometry>
        </mxCell>
        <mxCell id="NLIpUuNoYqL5pFW4PT16-33" value="" style="edgeStyle=orthogonalEdgeStyle;html=1;verticalAlign=bottom;endArrow=open;endSize=8;strokeColor=#ff0000;rounded=0;entryX=0.75;entryY=0.5;entryDx=0;entryDy=0;exitX=0;exitY=0.5;exitDx=0;exitDy=0;entryPerimeter=0;" edge="1" parent="1" source="NLIpUuNoYqL5pFW4PT16-28" target="NLIpUuNoYqL5pFW4PT16-31">
          <mxGeometry relative="1" as="geometry">
            <mxPoint x="331" y="630" as="targetPoint" />
            <Array as="points" />
            <mxPoint x="405" y="630" as="sourcePoint" />
          </mxGeometry>
        </mxCell>
        <mxCell id="NLIpUuNoYqL5pFW4PT16-34" value="" style="edgeStyle=orthogonalEdgeStyle;html=1;verticalAlign=bottom;endArrow=open;endSize=8;strokeColor=#ff0000;rounded=0;exitX=0.405;exitY=0.25;exitDx=0;exitDy=0;exitPerimeter=0;entryX=0;entryY=0.5;entryDx=0;entryDy=0;" edge="1" parent="1" source="NLIpUuNoYqL5pFW4PT16-31" target="NLIpUuNoYqL5pFW4PT16-35">
          <mxGeometry relative="1" as="geometry">
            <mxPoint x="160" y="840" as="targetPoint" />
            <Array as="points">
              <mxPoint x="80" y="651" />
              <mxPoint x="80" y="840" />
            </Array>
            <mxPoint x="180" y="840" as="sourcePoint" />
          </mxGeometry>
        </mxCell>
        <mxCell id="NLIpUuNoYqL5pFW4PT16-35" value="Chờ xác nhận" style="rounded=1;whiteSpace=wrap;html=1;arcSize=40;fontColor=#000000;fillColor=#ffffc0;strokeColor=#ff0000;" vertex="1" parent="1">
          <mxGeometry x="161" y="820" width="120" height="40" as="geometry" />
        </mxCell>
        <mxCell id="NLIpUuNoYqL5pFW4PT16-36" value="" style="edgeStyle=orthogonalEdgeStyle;html=1;verticalAlign=bottom;endArrow=open;endSize=8;strokeColor=#ff0000;rounded=0;exitX=1;exitY=0.5;exitDx=0;exitDy=0;entryX=0;entryY=0.5;entryDx=0;entryDy=0;" edge="1" source="NLIpUuNoYqL5pFW4PT16-35" parent="1" target="NLIpUuNoYqL5pFW4PT16-37">
          <mxGeometry relative="1" as="geometry">
            <mxPoint x="360" y="840" as="targetPoint" />
          </mxGeometry>
        </mxCell>
        <mxCell id="NLIpUuNoYqL5pFW4PT16-37" value="Nhận mã khóa học" style="rounded=1;whiteSpace=wrap;html=1;arcSize=40;fontColor=#000000;fillColor=#ffffc0;strokeColor=#ff0000;" vertex="1" parent="1">
          <mxGeometry x="360" y="820" width="120" height="40" as="geometry" />
        </mxCell>
        <mxCell id="NLIpUuNoYqL5pFW4PT16-38" value="" style="edgeStyle=orthogonalEdgeStyle;html=1;verticalAlign=bottom;endArrow=open;endSize=8;strokeColor=#ff0000;rounded=0;exitX=1;exitY=0.5;exitDx=0;exitDy=0;entryX=0;entryY=0.5;entryDx=0;entryDy=0;" edge="1" parent="1" source="NLIpUuNoYqL5pFW4PT16-37" target="NLIpUuNoYqL5pFW4PT16-39">
          <mxGeometry relative="1" as="geometry">
            <mxPoint x="560" y="840" as="targetPoint" />
          </mxGeometry>
        </mxCell>
        <mxCell id="NLIpUuNoYqL5pFW4PT16-39" value="Đánh giá" style="rounded=1;whiteSpace=wrap;html=1;arcSize=40;fontColor=#000000;fillColor=#ffffc0;strokeColor=#ff0000;" vertex="1" parent="1">
          <mxGeometry x="560" y="820" width="120" height="40" as="geometry" />
        </mxCell>
        <mxCell id="NLIpUuNoYqL5pFW4PT16-40" value="" style="edgeStyle=orthogonalEdgeStyle;html=1;verticalAlign=bottom;endArrow=open;endSize=8;strokeColor=#ff0000;rounded=0;exitX=0.5;exitY=1;exitDx=0;exitDy=0;entryX=0.5;entryY=0;entryDx=0;entryDy=0;" edge="1" parent="1" source="NLIpUuNoYqL5pFW4PT16-39" target="NLIpUuNoYqL5pFW4PT16-41">
          <mxGeometry relative="1" as="geometry">
            <mxPoint x="620" y="960" as="targetPoint" />
          </mxGeometry>
        </mxCell>
        <mxCell id="NLIpUuNoYqL5pFW4PT16-41" value="" style="ellipse;html=1;shape=endState;fillColor=#000000;strokeColor=#ff0000;" vertex="1" parent="1">
          <mxGeometry x="605" y="930" width="30" height="30" as="geometry" />
        </mxCell>
      </root>
    </mxGraphModel>
  </diagram>
</mxfile>
